<?xml version="1.0" encoding="UTF-8"?>
<!DOCTYPE svg PUBLIC "-//W3C//DTD SVG 1.1//EN" "http://www.w3.org/Graphics/SVG/1.1/DTD/svg11.dtd">
<!-- Creator: CorelDRAW X6 -->
<?xml-stylesheet href="ArtStationLogo.css" type="text/css"?>
<svg xmlns="http://www.w3.org/2000/svg" xml:space="preserve" width="469px" height="469px" version="1.1" style="shape-rendering:geometricPrecision; text-rendering:geometricPrecision; image-rendering:optimizeQuality; fill-rule:evenodd; clip-rule:evenodd"
viewBox="0 0 469 469"
 xmlns:xlink="http://www.w3.org/1999/xlink">
 <g id="Слой_x0020_1">
  <metadata id="CorelCorpID_0Corel-Layer"/>
  <g id="_812745872">
   <path class="fil0" d="M416 429c5,-4 28,-47 33,-55 17,-28 19,-37 2,-65l-150 -257c-6,-8 -15,-15 -27,-18 -8,-2 -80,-2 -89,-1 2,5 10,18 13,24 6,9 10,16 15,25 10,17 19,33 29,50l174 297z"/>
   <path class="fil0" d="M340 430c-2,-8 -20,-37 -26,-46 -8,-13 -18,-33 -26,-45l-282 0c1,6 32,56 38,67 18,30 42,24 83,24 70,0 144,-2 214,0z"/>
   <path class="fil0" d="M44 274l205 0c0,-1 -97,-169 -103,-175 -3,2 -4,5 -7,10l-45 77c-7,11 -50,84 -50,88z"/>
  </g>
 </g>
</svg>
